PathFileType	4	(X/Y/Z)	C:/Users/opensim2020/Desktop/walking_exp_matlab/subject03_walking15_straight_04.trc																																																																																																																																											
DataRate	CameraRate	NumFrames	NumMarkers	Units	OrigDataRate	OrigDataStartFrame	OrigNumFrames																																																																																																																																							
100	100	7	47	mm	100	2298	182																																																																																																																																							
Frame#	Time	LFHD			RFHD			LBHD			RBHD			C7			T10			CLAV			STRN			RBAK			LSHO			LUPA			LELB			LFRM			LWRA			LWRB			LFIN			RSHO			RUPA			RELB			RFRM			RWRA			RWRB			RFIN			LASI			RASI			LPSI			RPSI			LTHI			LKNE			LTIB			LANK			LHEE			LTOE			RTHI			RKNE			RTIB			RANK			RHEE			RTOE			*39			*40			*41			*42			*43			*44			*45			*46		
		X1	Y1	Z1	X2	Y2	Z2	X3	Y3	Z3	X4	Y4	Z4	X5	Y5	Z5	X6	Y6	Z6	X7	Y7	Z7	X8	Y8	Z8	X9	Y9	Z9	X10	Y10	Z10	X11	Y11	Z11	X12	Y12	Z12	X13	Y13	Z13	X14	Y14	Z14	X15	Y15	Z15	X16	Y16	Z16	X17	Y17	Z17	X18	Y18	Z18	X19	Y19	Z19	X20	Y20	Z20	X21	Y21	Z21	X22	Y22	Z22	X23	Y23	Z23	X24	Y24	Z24	X25	Y25	Z25	X26	Y26	Z26	X27	Y27	Z27	X28	Y28	Z28	X29	Y29	Z29	X30	Y30	Z30	X31	Y31	Z31	X32	Y32	Z32	X33	Y33	Z33	X34	Y34	Z34	X35	Y35	Z35	X36	Y36	Z36	X37	Y37	Z37	X38	Y38	Z38	X39	Y39	Z39	X40	Y40	Z40	X41	Y41	Z41	X42	Y42	Z42	X43	Y43	Z43	X44	Y44	Z44	X45	Y45	Z45	X46	Y46	Z46	X47	Y47	Z47
																																																																																																																																														
137	1.36	602.76361	1611.97644	925.52539	602.38123	1628.60461	1056.74353	473.17618	1576.70117	932.65607	477.33688	1592.61487	1062.47498	438.24573	1414.59143	1008.59753	419.05566	1099.88232	1009.03143	562.54175	1344.74316	1003.29077	615.75226	1182.21606	999.25238	400.66321	1236.96155	1110.35229	501.87628	1375.09534	849.75269	499.82648	1176.04639	783.08728	522.78796	1054.34265	775.16113	583.03436	939.49396	782.3454	640.25311	838.04114	820.68628	613.42255	829.37109	772.26953	658.69409	760.13354	786.05658	523.10284	1370.76074	1164.66382	553.35925	1153.99316	1246.80664	584.54108	1045.76013	1259.38635	628.84381	916.48175	1255.08203	671.48987	830.44153	1211.34509	650.29944	819.17322	1259.69897	690.59186	759.38751	1247.77112	590.09473	940.92609	894.44366	584.05151	943.40326	1129.65125	426.6915	955.17725	937.29352	424.04193	970.68695	1086.43909	623.22882	646.89789	843.48737	693.67731	484.10855	873.33807	611.31915	301.60513	868.26471	541.90173	104.46651	902.71088	491.64667	78.4602	939.73297	672.96503	38.63605	924.50525	519.49384	645.42908	1159.3938	519.57794	467.68753	1115.82654	458.01144	284.16257	1111.00232	414.6778	73.64338	1052.4375	368.8866	46.52267	1000.07208	555.27795	31.11485	1032.604	NaN	NaN	NaN	NaN	NaN	NaN	NaN	NaN	NaN	NaN	NaN	NaN	NaN	NaN	NaN	NaN	NaN	NaN	NaN	NaN	NaN	NaN	NaN	NaN
138	1.37	615.17181	1610.90796	925.1637	614.59937	1627.71228	1056.78772	484.93277	1576.15405	933.12085	489.51566	1592.11548	1062.91284	449.8692	1414.04871	1008.71893	430.29382	1099.2511	1008.9115	574.05524	1343.98828	1003.71826	627.1142	1181.39478	1000.06433	411.79626	1236.38135	1110.30908	514.00909	1374.1958	849.81537	511.02173	1174.78821	783.74719	531.69	1052.35828	775.71851	587.74829	934.80176	781.54962	639.7666	829.88837	818.40918	612.45605	823.50763	770.01843	654.0921	752.05658	782.00519	534.02765	1370.00037	1165.02319	565.5932	1154.0957	1247.73181	598.22186	1046.40198	1260.73938	646.31262	918.5033	1255.125	692.05908	834.49695	1210.80603	670.41577	821.79828	1258.65186	712.60522	763.36224	1246.19092	602.1283	940.37451	895.06854	594.1499	942.35199	1130.24622	438.27866	954.60846	936.85065	434.51373	970.06531	1085.79602	636.75775	647.20215	844.46448	707.53027	484.80103	875.73364	635.82227	297.4137	870.05115	580.26129	95.63659	904.57343	531.1181	66.89616	941.07391	715.46545	38.59249	928.14905	526.45551	644.81628	1158.90466	524.72778	466.99179	1115.57764	461.00043	284.31473	1110.5094	415.19644	74.24315	1051.34119	369.34894	47.59639	999.09412	555.49359	31.01792	1032.66431	NaN	NaN	NaN	NaN	NaN	NaN	NaN	NaN	NaN	NaN	NaN	NaN	NaN	NaN	NaN	NaN	NaN	NaN	NaN	NaN	NaN	NaN	NaN	NaN
139	1.38	626.97552	1609.89368	925.19507	626.75641	1626.74109	1056.85132	496.6449	1575.42285	933.51288	501.57803	1591.34546	1063.16797	461.68106	1413.3114	1008.34753	441.54651	1098.49622	1008.75421	585.70428	1343.01965	1004.20172	638.53473	1180.39575	1000.78809	422.84564	1235.60632	1110.10181	526.27777	1373.13208	849.97485	522.64532	1173.42615	784.40784	541.98492	1050.75818	776.25653	592.43671	930.27112	780.85596	638.79059	822.15558	816.17468	610.85907	817.98401	767.78668	649.16064	744.63867	778.06873	544.80035	1369.55664	1165.24036	577.59357	1153.93799	1248.60535	611.69348	1046.7854	1261.80505	663.409	920.37946	1255.07507	712.09918	838.55548	1210.20227	690.19116	824.33386	1257.37036	734.12152	767.29333	1244.45935	614.32233	939.70184	895.71606	604.2735	941.24152	1130.93457	449.93362	953.92816	936.13348	445.0192	969.26337	1085.22498	649.90021	647.51251	845.92645	719.98071	484.7547	877.83514	659.76807	293.52011	871.85107	618.98138	88.06239	906.60803	571.12701	56.58139	942.0816	757.38739	39.20379	931.91333	533.63928	644.12878	1158.76624	530.354	466.26575	1115.43542	464.04669	284.4696	1110.04236	415.64383	74.9959	1050.63196	369.77289	48.72828	998.12402	555.82935	30.80955	1032.77917	548.93506	1681.49548	969.81787	NaN	NaN	NaN	NaN	NaN	NaN	NaN	NaN	NaN	NaN	NaN	NaN	NaN	NaN	NaN	NaN	NaN	NaN	NaN	NaN	NaN
140	1.39	638.73181	1608.62292	925.36664	638.83032	1625.74438	1056.90881	508.52518	1574.45825	933.72754	513.68768	1590.47583	1063.50513	473.47656	1412.37744	1008.1424	452.8577	1097.55884	1008.46765	597.30804	1341.94287	1004.5929	649.98822	1179.25769	1001.47711	433.91251	1234.69006	1109.82422	538.72186	1371.89111	849.98328	534.51996	1171.82178	785.07172	553.12738	1049.20361	776.70844	597.23993	926.07098	780.14539	637.97473	815.15106	813.7959	609.78333	813.19458	765.34784	644.04633	737.92554	774.27277	555.52179	1368.69958	1165.59924	589.31787	1153.51965	1249.35999	625.00348	1047.03491	1262.60974	680.21533	922.29266	1255.03821	731.89301	842.70782	1209.63538	709.64063	826.84052	1255.87512	755.18774	771.2196	1242.58997	626.91357	938.94598	896.29376	614.39648	940.03271	1131.53638	461.93307	952.89233	935.6626	455.62485	968.19531	1084.59863	663.49463	647.39331	846.21924	732.29205	484.30856	879.54071	682.95795	289.99591	873.56335	657.61755	81.78338	908.74194	613.26788	47.01472	945.76746	798.6972	40.37322	935.52582	541.12317	643.52106	1158.77319	536.16699	465.61597	1115.40906	467.24701	284.64911	1109.67603	416.14203	75.84332	1049.9198	370.25644	50.03252	997.23431	555.95453	30.70089	1032.71082	NaN	NaN	NaN	NaN	NaN	NaN	NaN	NaN	NaN	NaN	NaN	NaN	NaN	NaN	NaN	NaN	NaN	NaN	NaN	NaN	NaN	NaN	NaN	NaN
141	1.4	650.54205	1607.43652	925.36285	650.80164	1624.6145	1056.84167	520.20825	1573.42358	934.09821	525.68811	1589.43103	1063.84717	485.28973	1411.23816	1007.60236	464.17926	1096.58069	1008.08759	609.00464	1340.78552	1004.98199	661.46698	1178.01733	1002.22919	444.95801	1233.66016	1109.37305	551.32373	1370.58069	850.05188	546.4458	1170.20703	785.76947	563.16931	1047.27502	777.22961	602.08801	922.17932	779.48328	636.3504	808.57294	811.81976	609.15973	809.09882	762.82574	638.83215	731.94806	770.72461	566.32849	1367.58923	1165.67834	600.8222	1152.89966	1250.03833	638.0116	1047.12891	1263.51367	696.54053	924.06604	1254.90906	751.03864	846.77545	1209.0094	728.62439	829.29803	1254.46582	775.76349	775.09888	1240.61877	639.35315	937.85248	897.07581	624.58563	938.77502	1132.22632	473.79959	951.8363	934.99164	466.33951	966.90765	1083.93909	675.50238	646.31787	847.35321	743.38458	482.97491	881.23938	705.47052	286.7157	875.21045	695.77802	76.80499	910.91687	653.60797	40.16388	947.9411	839.11578	42.40078	938.90613	548.82324	642.93054	1158.7251	542.17633	465.04398	1115.56885	470.60913	284.90265	1109.49695	416.7298	76.75001	1049.56616	370.70621	51.46606	996.63098	556.16687	30.75955	1032.578	572.94696	1677.88867	969.66602	NaN	NaN	NaN	NaN	NaN	NaN	NaN	NaN	NaN	NaN	NaN	NaN	NaN	NaN	NaN	NaN	NaN	NaN	NaN	NaN	NaN
142	1.41	661.93579	1606.69189	925.22552	662.7663	1623.526	1056.77405	531.55188	1572.39014	934.91821	537.67041	1588.19836	1063.99182	496.99899	1410.20483	1007.81793	475.54401	1095.41479	1007.43817	620.74158	1339.4895	1005.36365	673.021	1176.72083	1003.03296	456.06534	1232.55774	1108.8717	564.06329	1369.20007	850.008	558.81134	1168.50122	786.25958	573.9007	1045.65564	777.71094	607.02771	918.68317	778.84412	635.07574	802.85437	809.69733	608.08997	805.50055	760.57495	633.61768	726.71167	767.41699	577.30835	1366.38489	1165.88574	612.10571	1152.12329	1250.59399	650.77979	1046.97131	1264.13599	712.46234	925.60345	1254.65674	769.65924	850.7713	1208.39343	746.99878	831.73962	1253.20581	795.77356	778.95117	1238.66968	652.18188	936.68677	897.81317	634.88672	937.50562	1132.86499	486.14566	950.56262	934.26965	477.18292	965.49347	1083.16235	687.13831	644.65833	848.33362	753.45129	480.9523	882.85889	727.26404	283.72183	877.03674	732.76422	73.63459	912.85706	692.85046	35.43056	950.22552	878.24725	45.70536	941.87164	556.68182	642.39319	1158.75195	548.35175	464.483	1115.87305	474.14612	285.2467	1109.52905	417.3309	77.75217	1049.42871	371.07965	53.01962	996.37561	556.32489	30.65401	1032.44604	584.64386	1676.69556	969.67993	NaN	NaN	NaN	NaN	NaN	NaN	NaN	NaN	NaN	NaN	NaN	NaN	NaN	NaN	NaN	NaN	NaN	NaN	NaN	NaN	NaN
143	1.42	673.8045	1605.41992	925.0127	674.66089	1622.35376	1056.77173	543.46832	1570.87317	934.65021	549.61328	1586.88013	1064.16736	509.12543	1408.88733	1006.84094	487.06436	1094.22839	1006.64355	632.44281	1338.15833	1005.71893	684.67542	1175.33191	1003.87274	467.20776	1231.32434	1108.24048	576.96613	1367.76416	849.95325	571.15088	1166.73254	786.56116	584.42792	1043.84399	778.0484	612.04834	915.58075	778.14819	634.08209	798.01147	807.52661	607.77814	802.69464	758.1098	628.8847	722.23175	764.20996	588.10309	1365.1925	1166.02234	623.25128	1151.16382	1251.05981	663.31885	1046.70227	1264.57837	727.96033	927.02649	1254.30042	787.57941	854.52802	1207.68652	764.94342	834.05054	1251.802	815.18024	782.64728	1236.61292	665.12646	935.28778	898.4856	645.05994	935.98511	1133.61584	498.50723	949.22888	933.41638	488.1788	964.04431	1082.19885	698.0603	642.34198	849.09717	763.18378	478.4003	884.54755	747.87451	281.26086	879.00555	768.04517	71.82452	914.55048	731.07886	31.81249	952.50397	915.45593	50.79111	944.17883	564.74927	641.89777	1158.89441	554.74738	463.90982	1116.27429	477.85495	285.65692	1109.84399	417.89377	78.95687	1049.83423	371.40363	54.70326	996.52069	556.51416	30.64735	1032.71118	596.24988	1675.47339	969.68304	NaN	NaN	NaN	NaN	NaN	NaN	NaN	NaN	NaN	NaN	NaN	NaN	NaN	NaN	NaN	NaN	NaN	NaN	NaN	NaN	NaN
